<svg width="30" height="30" viewBox="0 0 30 30" fill="none"
  xmlns="http://www.w3.org/2000/svg">
  <path d="M14.9997 5.12204C20.4466 5.12204 24.8774 9.55289 24.8774 14.9997C24.8774 20.4466 20.4466 24.8774 14.9997 24.8774C9.55289 24.8774 5.12204 20.4466 5.12204 14.9997C5.12204 9.55289 9.55289 5.12204 14.9997 5.12204ZM14.9997 3.71094C8.76621 3.71094 3.71094 8.76621 3.71094 14.9997C3.71094 21.2333 8.76621 26.2885 14.9997 26.2885C21.2333 26.2885 26.2885 21.2333 26.2885 14.9997C26.2885 8.76621 21.2333 3.71094 14.9997 3.71094Z" fill="white"/>
  <path d="M13.9376 10.7666L12.8828 11.8214L16.0648 14.9999L12.8828 18.1784L13.9376 19.2332L18.1744 14.9999L13.9376 10.7666Z" fill="white"/>
</svg>
