<svg width="167" height="49" viewBox="0 0 167 49" fill="none" xmlns="http://www.w3.org/2000/svg">
<path fill-rule="evenodd" clip-rule="evenodd" d="M52.1385 42.5617C51.3588 42.5617 50.6476 42.5147 50.0039 42.4211C49.3601 42.3266 48.7844 42.2151 48.2762 42.085C47.7684 41.955 47.339 41.8209 46.9892 41.6819C46.6385 41.5434 46.3714 41.4288 46.1875 41.3398L46.9496 39.1231C47.2035 39.2576 47.6129 39.4187 48.1779 39.6067C48.7428 39.7948 49.3489 39.9428 49.9975 40.0504C50.6452 40.1574 51.2497 40.2114 51.8103 40.2114C52.9486 40.2114 53.8354 40.0434 54.4703 39.7078C55.1053 39.3717 55.5083 38.9575 55.6785 38.4654C55.8497 37.9727 55.9349 37.5026 55.9349 37.0544C55.9349 36.3022 55.6942 35.6955 55.2124 35.2348C54.7306 34.7737 54.1504 34.4061 53.472 34.133C52.793 33.8604 52.1782 33.6158 51.6264 33.4013C51.1006 33.2132 50.6036 33.0161 50.135 32.8101C49.6668 32.6045 49.1938 32.3379 48.7164 32.0108C48.239 31.6842 47.8364 31.2946 47.5077 30.8424C47.1795 30.3903 46.9628 29.9382 46.8576 29.4855C46.7525 29.0334 46.7001 28.5567 46.7001 28.055C46.7001 27.2493 46.8488 26.5196 47.1467 25.8659C47.4441 25.2121 47.8692 24.657 48.421 24.2003C48.9727 23.7437 49.6448 23.3921 50.4373 23.146C51.2302 22.8994 52.1209 22.7764 53.1105 22.7764C53.8638 22.7764 54.5642 22.8234 55.2124 22.9179C55.8605 23.0114 56.3971 23.119 56.8217 23.24C57.2463 23.3606 57.5505 23.4436 57.7345 23.4881V25.9199C57.2879 25.7498 56.806 25.5993 56.2895 25.4697C55.7729 25.3397 55.2407 25.2392 54.6939 25.1676C54.146 25.0956 53.6099 25.0601 53.0846 25.0601C51.9106 25.0601 50.9978 25.3062 50.3453 25.7983C49.6928 26.2915 49.3665 26.9987 49.3665 27.921C49.3665 28.3867 49.4697 28.7803 49.6757 29.1029C49.8811 29.425 50.1721 29.7096 50.5488 29.9562C50.9254 30.2022 51.372 30.4283 51.8891 30.6339C52.4056 30.8399 52.9745 31.055 53.5967 31.2786C54.2796 31.5387 54.9365 31.8117 55.567 32.0983C56.1975 32.3849 56.7517 32.7405 57.2287 33.1662C57.7061 33.5913 58.0896 34.113 58.3782 34.7312C58.6673 35.3489 58.8121 36.1141 58.8121 37.0279C58.8121 37.9142 58.6609 38.7024 58.3586 39.3917C58.0568 40.0814 57.6185 40.6611 57.0447 41.1317C56.4715 41.6014 55.7729 41.9575 54.9497 42.1991C54.1265 42.4411 53.1892 42.5617 52.1385 42.5617Z" fill="white"/>
<mask id="mask0_702_15201" style="mask-type:alpha" maskUnits="userSpaceOnUse" x="62" y="28" width="13" height="20">
<path d="M62.2266 47.786H74.1414V28.0273H62.2266V47.786Z" fill="white"/>
</mask>
<g mask="url(#mask0_702_15201)">
<path fill-rule="evenodd" clip-rule="evenodd" d="M67.7437 40.3313C68.3742 40.3313 68.928 40.2062 69.4054 39.9551C69.8828 39.7046 70.235 39.391 70.4629 39.0148C70.6904 38.6387 70.8616 38.2676 70.9751 37.9005C71.0978 37.4974 71.1898 37.0632 71.2509 36.5971C71.3121 36.1319 71.3429 35.6438 71.3429 35.1331C71.3429 34.0318 71.2118 33.103 70.9491 32.3462C70.6865 31.589 70.301 31.0568 69.7928 30.7477C69.285 30.4391 68.7333 30.2841 68.138 30.2841C67.6121 30.2841 67.1435 30.4121 66.7322 30.6672C66.3203 30.9223 65.9745 31.2779 65.6947 31.735C65.4139 32.1917 65.2021 32.7378 65.0573 33.3735C64.913 34.0093 64.8406 34.7035 64.8406 35.4557V39.0289C65.2349 39.4315 65.6682 39.7496 66.1413 39.9822C66.6138 40.2152 67.1479 40.3313 67.7437 40.3313ZM62.2266 47.7861V28.3099H64.7222L64.7751 30.3381C65.0113 29.8724 65.3439 29.4538 65.7734 29.0822C66.2024 28.7106 66.6818 28.442 67.2115 28.2759C67.7418 28.1104 68.2867 28.0273 68.8473 28.0273C70.1083 28.0273 71.1546 28.3655 71.9866 29.0422C72.8187 29.7179 73.3856 30.6092 73.6879 31.7145C73.9902 32.8204 74.1414 33.9427 74.1414 35.0796C74.1414 36.253 74.0142 37.3003 73.7603 38.2226C73.5059 39.1449 73.1317 39.9221 72.6372 40.5528C72.1422 41.1845 71.5293 41.6657 70.798 41.9968C70.0667 42.3279 69.2283 42.494 68.2823 42.494C67.5114 42.494 66.8461 42.3934 66.2856 42.1919C65.725 41.9903 65.2432 41.7192 64.8406 41.3791V47.7861H62.2266Z" fill="white"/>
</g>
<path fill-rule="evenodd" clip-rule="evenodd" d="M81.9185 40.4393C82.3827 40.4393 82.8488 40.3638 83.3174 40.2112C83.786 40.0587 84.1558 39.8866 84.4273 39.694C84.6988 39.5015 84.9135 39.3204 85.071 39.1499V35.3757H84.0991C83.337 35.3757 82.6757 35.4227 82.1156 35.5167C81.555 35.6107 81.0888 35.7698 80.7161 35.9934C80.3444 36.2174 80.066 36.5085 79.8821 36.8661C79.6982 37.2248 79.6062 37.6634 79.6062 38.1826C79.6062 38.6392 79.6982 39.0533 79.8821 39.4255C80.066 39.7971 80.3419 40.0587 80.7098 40.2112C81.0776 40.3638 81.4802 40.4393 81.9185 40.4393ZM81.196 42.4944C80.6266 42.4944 80.0856 42.4184 79.5739 42.2659C79.0613 42.1143 78.6147 41.8697 78.2337 41.5341C77.8526 41.1985 77.5508 40.7639 77.3273 40.2312C77.1042 39.6985 76.9922 39.0518 76.9922 38.2901C76.9922 37.2338 77.2289 36.363 77.7015 35.6778C78.1745 34.9925 78.871 34.4624 79.7901 34.0863C80.3072 33.8802 80.8873 33.7281 81.531 33.6296C82.1748 33.5306 82.8948 33.4726 83.6916 33.4546C83.7269 33.4546 83.8125 33.4525 83.9479 33.448C84.0839 33.4435 84.2258 33.4415 84.375 33.4415C84.5237 33.4415 84.666 33.439 84.802 33.4345C84.9375 33.43 85.027 33.4275 85.071 33.4275V32.6758C85.071 31.9771 84.9463 31.4379 84.6968 31.0573C84.4469 30.6762 84.0639 30.4171 83.5473 30.2785C83.0303 30.139 82.479 30.07 81.892 30.07C81.1564 30.07 80.4779 30.146 79.8562 30.2985C79.234 30.4506 78.6387 30.6296 78.0693 30.8357V28.6595C78.805 28.463 79.3391 28.3329 79.6723 28.2699C80.0049 28.2074 80.4295 28.1514 80.9465 28.1023C81.4631 28.0528 81.9488 28.0283 82.4047 28.0283C83.3062 28.0283 84.0883 28.1178 84.7497 28.2969C85.4105 28.476 85.9554 28.7536 86.3849 29.1297C86.8139 29.5058 87.1314 29.9849 87.3373 30.5671C87.5432 31.1493 87.646 31.843 87.646 32.6488V42.2258H85.1762L85.1239 41.044C84.8612 41.3126 84.5261 41.5561 84.1192 41.7762C83.7117 41.9953 83.2387 42.1698 82.7001 42.2999C82.1616 42.4294 81.6602 42.4944 81.196 42.4944Z" fill="white"/>
<path fill-rule="evenodd" clip-rule="evenodd" d="M91.9844 42.2255V28.31H94.4805L94.5329 30.9424C94.8391 30.3067 95.2113 29.7785 95.6496 29.3574C96.0874 28.9367 96.5428 28.6436 97.0158 28.4781C97.4883 28.312 97.9437 28.2295 98.382 28.2295C98.8286 28.2295 99.17 28.256 99.4063 28.31V30.8353C99.1965 30.7813 98.8854 30.7543 98.474 30.7543C97.817 30.7543 97.2477 30.8778 96.7659 31.1239C96.2845 31.37 95.8815 31.6861 95.5576 32.0707C95.2333 32.4558 94.9927 32.881 94.8352 33.3466C94.6772 33.8128 94.5984 34.2599 94.5984 34.6901V42.2255H91.9844Z" fill="white"/>
<path fill-rule="evenodd" clip-rule="evenodd" d="M101.969 42.2262V22.0107H104.583V33.6965L109.667 28.3108H112.806L107.079 34.3282C107.639 34.8298 108.204 35.394 108.773 36.0207C109.343 36.6474 109.896 37.3031 110.436 37.9883C110.974 38.6731 111.495 39.3763 111.998 40.097C112.502 40.8182 112.977 41.528 113.424 42.2262H110.153C109.601 41.4204 108.986 40.5737 108.307 39.6874C107.628 38.8006 106.972 37.9948 106.337 37.2696C105.701 36.5444 105.117 35.9132 104.583 35.376V42.2262H101.969Z" fill="white"/>
<path fill-rule="evenodd" clip-rule="evenodd" d="M119.606 40.4393C120.07 40.4393 120.536 40.3638 121.005 40.2112C121.474 40.0587 121.843 39.8866 122.115 39.694C122.386 39.5015 122.601 39.3204 122.759 39.1499V35.3757H121.787C121.024 35.3757 120.363 35.4227 119.803 35.5167C119.243 35.6107 118.776 35.7698 118.404 35.9934C118.032 36.2174 117.754 36.5085 117.57 36.8661C117.386 37.2248 117.294 37.6634 117.294 38.1826C117.294 38.6392 117.386 39.0533 117.57 39.4255C117.754 39.7971 118.029 40.0587 118.397 40.2112C118.765 40.3638 119.168 40.4393 119.606 40.4393ZM118.883 42.4944C118.314 42.4944 117.773 42.4184 117.261 42.2659C116.749 42.1143 116.302 41.8697 115.921 41.5341C115.54 41.1985 115.238 40.7639 115.015 40.2312C114.792 39.6985 114.68 39.0518 114.68 38.2901C114.68 37.2338 114.916 36.363 115.389 35.6778C115.862 34.9925 116.559 34.4624 117.478 34.0863C117.995 33.8802 118.575 33.7281 119.219 33.6296C119.862 33.5306 120.582 33.4726 121.379 33.4546C121.414 33.4546 121.5 33.4525 121.635 33.448C121.771 33.4435 121.913 33.4415 122.062 33.4415C122.211 33.4415 122.354 33.439 122.49 33.4345C122.625 33.43 122.715 33.4275 122.759 33.4275V32.6758C122.759 31.9771 122.634 31.4379 122.384 31.0573C122.134 30.6762 121.751 30.4171 121.235 30.2785C120.718 30.139 120.167 30.07 119.58 30.07C118.844 30.07 118.165 30.146 117.544 30.2985C116.921 30.4506 116.326 30.6296 115.757 30.8357V28.6595C116.492 28.463 117.027 28.3329 117.36 28.2699C117.692 28.2074 118.117 28.1514 118.634 28.1023C119.151 28.0528 119.636 28.0283 120.092 28.0283C120.994 28.0283 121.776 28.1178 122.437 28.2969C123.098 28.476 123.643 28.7536 124.072 29.1297C124.501 29.5058 124.819 29.9849 125.025 30.5671C125.231 31.1493 125.333 31.843 125.333 32.6488V42.2258H122.864L122.811 41.044C122.549 41.3126 122.214 41.5561 121.807 41.7762C121.399 41.9953 120.926 42.1698 120.388 42.2999C119.849 42.4294 119.348 42.4944 118.883 42.4944Z" fill="white"/>
<path fill-rule="evenodd" clip-rule="evenodd" d="M133.465 42.4949C132.852 42.4949 132.289 42.4614 131.777 42.3944C131.264 42.3269 130.805 42.2439 130.397 42.1458C129.99 42.0468 129.638 41.9438 129.34 41.8367C129.042 41.7292 128.801 41.6307 128.617 41.5411L129.314 39.526C129.769 39.714 130.181 39.8641 130.548 39.9766C130.916 40.0882 131.343 40.1802 131.829 40.2517C132.315 40.3232 132.803 40.3588 133.294 40.3588C134.082 40.3588 134.711 40.2672 135.179 40.0842C135.647 39.9006 135.954 39.656 136.098 39.3519C136.243 39.0473 136.315 38.7472 136.315 38.4516C136.315 37.968 136.134 37.5809 135.77 37.2903C135.407 36.9992 134.949 36.7641 134.398 36.585C133.846 36.4055 133.338 36.2314 132.874 36.0609C132.322 35.8728 131.812 35.6758 131.343 35.4697C130.875 35.2641 130.468 35.013 130.122 34.7175C129.776 34.4219 129.506 34.0642 129.314 33.6431C129.121 33.2225 129.025 32.7078 129.025 32.0986C129.025 31.4449 129.145 30.8627 129.386 30.3526C129.627 29.8419 129.966 29.4168 130.404 29.0762C130.842 28.736 131.372 28.4765 131.993 28.2969C132.615 28.1184 133.302 28.0283 134.056 28.0283C134.949 28.0283 135.724 28.0823 136.381 28.1894C137.038 28.2969 137.616 28.4269 138.115 28.5795V30.7822C137.546 30.5851 136.944 30.4306 136.309 30.3186C135.674 30.207 134.975 30.1505 134.214 30.1505C133.312 30.1505 132.646 30.294 132.217 30.5806C131.787 30.8672 131.573 31.3014 131.573 31.8835C131.573 32.1791 131.65 32.4297 131.803 32.6358C131.956 32.8419 132.173 33.0249 132.453 33.1865C132.733 33.3475 133.077 33.4976 133.485 33.6366C133.892 33.7752 134.349 33.9252 134.857 34.0863C135.908 34.4179 136.734 34.767 137.333 35.1341C137.933 35.5017 138.358 35.9583 138.608 36.504C138.857 37.0502 138.982 37.6459 138.982 38.2906C138.982 38.9983 138.851 39.616 138.588 40.1442C138.325 40.6724 137.953 41.111 137.471 41.4606C136.99 41.8097 136.409 42.0693 135.73 42.2394C135.052 42.4094 134.297 42.4949 133.465 42.4949Z" fill="white"/>
<path fill-rule="evenodd" clip-rule="evenodd" d="M146.09 42.4949C145.477 42.4949 144.914 42.4614 144.402 42.3944C143.889 42.3269 143.43 42.2439 143.022 42.1458C142.615 42.0468 142.263 41.9438 141.965 41.8367C141.667 41.7292 141.426 41.6307 141.242 41.5411L141.939 39.526C142.394 39.714 142.806 39.8641 143.173 39.9766C143.541 40.0882 143.968 40.1802 144.454 40.2517C144.94 40.3232 145.428 40.3588 145.919 40.3588C146.707 40.3588 147.336 40.2672 147.804 40.0842C148.272 39.9006 148.579 39.656 148.723 39.3519C148.868 39.0473 148.94 38.7472 148.94 38.4516C148.94 37.968 148.759 37.5809 148.395 37.2903C148.032 36.9992 147.574 36.7641 147.023 36.585C146.471 36.4055 145.963 36.2314 145.499 36.0609C144.947 35.8728 144.437 35.6758 143.968 35.4697C143.5 35.2641 143.093 35.013 142.747 34.7175C142.401 34.4219 142.131 34.0642 141.939 33.6431C141.746 33.2225 141.65 32.7078 141.65 32.0986C141.65 31.4449 141.77 30.8627 142.011 30.3526C142.252 29.8419 142.591 29.4168 143.029 29.0762C143.467 28.736 143.997 28.4765 144.618 28.2969C145.24 28.1184 145.927 28.0283 146.681 28.0283C147.574 28.0283 148.349 28.0823 149.006 28.1894C149.663 28.2969 150.241 28.4269 150.74 28.5795V30.7822C150.171 30.5851 149.569 30.4306 148.934 30.3186C148.299 30.207 147.6 30.1505 146.839 30.1505C145.937 30.1505 145.271 30.294 144.842 30.5806C144.412 30.8672 144.198 31.3014 144.198 31.8835C144.198 32.1791 144.275 32.4297 144.428 32.6358C144.581 32.8419 144.798 33.0249 145.078 33.1865C145.358 33.3475 145.702 33.4976 146.11 33.6366C146.517 33.7752 146.974 33.9252 147.482 34.0863C148.533 34.4179 149.359 34.767 149.958 35.1341C150.558 35.5017 150.983 35.9583 151.233 36.504C151.482 37.0502 151.607 37.6459 151.607 38.2906C151.607 38.9983 151.476 39.616 151.213 40.1442C150.95 40.6724 150.578 41.111 150.096 41.4606C149.615 41.8097 149.034 42.0693 148.355 42.2394C147.677 42.4094 146.922 42.4949 146.09 42.4949Z" fill="white"/>
<mask id="mask1_702_15201" style="mask-type:alpha" maskUnits="userSpaceOnUse" x="154" y="27" width="13" height="16">
<path d="M166.016 42.5618V27.9746H154.508V42.5618H166.016Z" fill="white"/>
</mask>
<g mask="url(#mask1_702_15201)">
<path fill-rule="evenodd" clip-rule="evenodd" d="M163.27 34.1666H157.227C157.306 32.8327 157.612 31.7938 158.147 31.0506C158.681 30.3074 159.456 29.9357 160.472 29.9357C161.435 29.9357 162.143 30.2493 162.594 30.876C163.045 31.5027 163.27 32.389 163.27 33.5354V34.1666ZM166.016 34.4622C166.016 32.376 165.556 30.773 164.636 29.6536C163.717 28.5343 162.35 27.9746 160.538 27.9746C159.566 27.9746 158.703 28.1517 157.95 28.5053C157.196 28.8589 156.566 29.3581 156.058 30.0028C155.55 30.6475 155.165 31.4197 154.902 32.32C154.639 33.2193 154.508 34.2116 154.508 35.2949C154.508 36.4058 154.653 37.4081 154.942 38.3034C155.23 39.1997 155.653 39.9624 156.209 40.5941C156.765 41.2248 157.446 41.711 158.252 42.0516C159.057 42.3912 159.977 42.5618 161.011 42.5618C161.886 42.5618 162.655 42.5192 163.316 42.4337C163.977 42.3487 164.592 42.2171 165.162 42.0376L164.649 39.9959C164.22 40.1215 163.721 40.2265 163.152 40.3115C162.582 40.3971 161.996 40.4396 161.392 40.4396C160.087 40.4396 159.101 40.0655 158.436 39.3177C157.77 38.5705 157.385 37.4931 157.28 36.0877H165.963C165.998 35.622 166.016 35.0799 166.016 34.4622Z" fill="white"/>
</g>
<path fill-rule="evenodd" clip-rule="evenodd" d="M12.6429 9.80608C13.109 10.2922 13.6603 10.6724 14.2972 10.9474C14.9341 11.223 15.6111 11.3601 16.3286 11.3601C17.0457 11.3601 17.7183 11.223 18.3464 10.9474C18.974 10.6724 19.5253 10.2922 20.0007 9.80608C20.4757 9.32042 20.8484 8.75624 21.1175 8.11404C21.3865 7.47283 21.521 6.78511 21.521 6.05088C21.521 5.31765 21.3865 4.62993 21.1175 3.98772C20.8484 3.34652 20.4757 2.78234 20.0007 2.29618C19.5253 1.81053 18.974 1.42991 18.3464 1.15432C17.7183 0.879231 17.0457 0.742188 16.3286 0.742188C15.6111 0.742188 14.9341 0.879231 14.2972 1.15432C13.6603 1.42991 13.109 1.81053 12.6429 2.29618C12.1762 2.78234 11.804 3.34652 11.5261 3.98772C11.2478 4.62993 11.1094 5.31765 11.1094 6.05088C11.1094 6.78511 11.2478 7.47283 11.5261 8.11404C11.804 8.75624 12.1762 9.32042 12.6429 9.80608Z" fill="white"/>
<path fill-rule="evenodd" clip-rule="evenodd" d="M31.9614 22.0065V19.8883C31.9614 19.1551 31.8269 18.4673 31.5579 17.8251C31.2889 17.1834 30.921 16.6193 30.4549 16.1336C29.9882 15.6474 29.4364 15.2668 28.8005 14.9917C28.1632 14.7166 27.4862 14.5791 26.7691 14.5791H5.91892C5.20134 14.5791 4.52875 14.7166 3.90117 14.9917C3.27309 15.2668 2.72182 15.6474 2.24636 16.1336C1.77139 16.6193 1.39915 17.1834 1.13011 17.8251C0.86108 18.4673 0.726562 19.1551 0.726562 19.8883V31.607H24.6437V34.798H0.726562V36.9162C0.726562 37.65 0.86108 38.3377 1.13011 38.9794C1.39915 39.6216 1.77139 40.1858 2.24636 40.6709C2.72182 41.1571 3.27309 41.5377 3.90117 41.8128C4.52875 42.0879 5.20134 42.2254 5.91892 42.2254H26.7691C27.4862 42.2254 28.1632 42.0879 28.8005 41.8128C29.4364 41.5377 29.9882 41.1571 30.4549 40.6709C30.921 40.1858 31.2889 39.6216 31.5579 38.9794C31.8269 38.3377 31.9614 37.65 31.9614 36.9162V25.1975H7.99049V22.0065H31.9614Z" fill="white"/>
</svg>
